<?xml version="1.0" encoding="UTF-8"?>
<svg version="1.1" xmlns="http://www.w3.org/2000/svg" width="2000" height="1999">
<path d="M0 0 C0.72488239 0.00026688 1.44976479 0.00053375 2.19661331 0.00080872 C25.84616873 0.01171202 49.41292406 0.32215511 73 2.1875 C73.83631958 2.25302063 74.67263916 2.31854126 75.53430176 2.38604736 C127.98332898 6.53675109 179.73803796 14.31285829 231 26.1875 C231.73118042 26.35638733 232.46236084 26.52527466 233.21569824 26.69927979 C313.7143962 45.35642547 391.63549235 75.10178677 508.19677734 137.51367188 C510.90234976 139.12919221 513.61671469 140.72905521 516.33203125 142.328125 C528.59732297 149.61492201 540.50595948 157.40256186 552.375 165.3125 C553.12487183 165.81174988 553.87474365 166.31099976 554.64733887 166.82537842 C568.88205143 176.31661747 582.93016185 186.07691327 596.6875 196.25 C597.47874268 196.83450928 598.26998535 197.41901855 599.08520508 198.02124023 C606.16684782 203.27429986 613.12758736 208.66414462 620 214.1875 C620.6403418 214.7016748 621.28068359 215.21584961 621.94042969 215.74560547 C630.51909554 222.64709861 639.00664201 229.64790815 647.37597656 236.80175781 C649.06714221 238.24479092 650.76374619 239.68124817 652.4609375 241.1171875 C658.94559384 246.61964603 665.29770349 252.23275209 671.51855469 258.03222656 C674.38395334 260.70318113 677.27672997 263.32480396 680.25 265.875 C683.86617434 268.99736902 687.20551021 272.35317976 690.53125 275.78125 C692.5144919 277.71428324 694.52196373 279.51521726 696.62109375 281.31640625 C701.83937335 285.84637397 706.68873253 290.73035987 711.5625 295.625 C712.46935547 296.52798828 713.37621094 297.43097656 714.31054688 298.36132812 C718.89550759 302.95293853 723.33282728 307.60310698 727.55834961 312.52758789 C729.28256901 314.51284915 731.10877606 316.36149068 733 318.1875 C736.17089998 321.31595964 739.1256996 324.55605352 742.02734375 327.93359375 C743.96458906 330.14704037 745.95084932 332.30936491 747.95166016 334.46533203 C752.70810378 339.59380624 757.24107436 344.83360754 761.62890625 350.28515625 C764.31831577 353.57713528 767.09181954 356.78744494 769.875 360 C775.28625049 366.27284932 780.43991422 372.71375651 785.5078125 379.265625 C787.11074785 381.33013859 788.72632058 383.38432476 790.34375 385.4375 C797.95511867 395.1215127 805.30516414 404.96002897 812.44287109 414.99804688 C813.95332862 417.12187614 815.47040237 419.24084619 816.98828125 421.359375 C868.86906828 494.03194949 910.28564352 573.85085618 1001 1010.1875 C1000.98211426 1011.3955127 1000.96422852 1012.60352539 1000.94580078 1013.84814453 C999.51907011 1104.00521907 986.40704321 1193.7142696 897 1444.1875 C896.5059668 1445.20424805 896.01193359 1446.22099609 895.50292969 1447.26855469 C888.69481003 1461.23980485 881.40071629 1474.84425157 873.64550781 1488.31103516 C871.98065685 1491.2213132 870.34204608 1494.14491056 868.7109375 1497.07421875 C862.36091163 1508.46546485 855.75495817 1519.61424036 848.68212891 1530.57080078 C846.78856068 1533.51641242 844.91512132 1536.47432694 843.04296875 1539.43359375 C836.35368652 1549.98683218 829.62223579 1560.43436259 822.22167969 1570.50341797 C820.88770332 1572.34230065 819.5860435 1574.20125448 818.2890625 1576.06640625 C797.25121421 1606.30585548 774.13208631 1635.58721303 749.2265625 1662.74609375 C747.30866793 1664.84904833 745.42623955 1666.97419156 743.5625 1669.125 C737.18579611 1676.45142574 730.65098988 1683.65033228 723.70922852 1690.44580078 C722.02752308 1692.15945406 720.47339526 1693.93325887 718.91796875 1695.76171875 C714.5213449 1700.81407096 709.80721988 1705.5266367 705.0625 1710.25 C704.20720703 1711.10916016 703.35191406 1711.96832031 702.47070312 1712.85351562 C698.0033774 1717.31402621 693.46599546 1721.61464414 688.67749023 1725.72827148 C686.68735167 1727.45946901 684.83177222 1729.29030734 683 1731.1875 C679.87154036 1734.35839998 676.63144648 1737.3131996 673.25390625 1740.21484375 C671.04045963 1742.15208906 668.87813509 1744.13834932 666.72216797 1746.13916016 C661.59369376 1750.89560378 656.35389246 1755.42857436 650.90234375 1759.81640625 C647.61036968 1762.50581171 644.39995032 1765.27920396 641.1875 1768.0625 C634.85520971 1773.52853991 628.34017013 1778.72010366 621.72802734 1783.84179688 C620.0352856 1785.1600213 618.35381445 1786.49124402 616.67578125 1787.828125 C606.97684707 1795.54476423 597.03074189 1802.90887502 587 1810.1875 C586.34821777 1810.66203613 585.69643555 1811.13657227 585.02490234 1811.62548828 C547.83061644 1838.60919452 508.5377446 1862.59338116 468 1884.1875 C466.96198242 1884.7434082 465.92396484 1885.29931641 464.85449219 1885.87207031 C390.10639714 1925.75689285 309.47575042 1955.28325119 73 1997.1875 C72.2268042 1997.24808594 71.4536084 1997.30867188 70.65698242 1997.37109375 C23.86653908 2001.0033438 -24.21882407 2000.85317097 -71 1997.1875 C-71.82218018 1997.12433594 -72.64436035 1997.06117187 -73.49145508 1996.99609375 C-130.03877267 1992.6244584 -185.94386068 1983.82320955 -241 1970.1875 C-241.78679138 1969.99327454 -242.57358276 1969.79904907 -243.38421631 1969.59893799 C-320.18420124 1950.59386308 -394.45655983 1921.89032736 -506.16455078 1861.87744141 C-508.00384602 1860.78121257 -509.84582055 1859.68946195 -511.69091797 1858.60302734 C-524.86844505 1850.84225333 -537.65234764 1842.54131452 -550.375 1834.0625 C-551.49980774 1833.31362518 -551.49980774 1833.31362518 -552.64733887 1832.54962158 C-566.88207725 1823.05836532 -580.92991696 1813.29779464 -594.6875 1803.125 C-595.47511719 1802.54339111 -596.26273438 1801.96178223 -597.07421875 1801.36254883 C-607.05506405 1793.96096621 -616.77621469 1786.25473936 -626.3671875 1778.35546875 C-628.11729526 1776.91435627 -629.87249612 1775.47940597 -631.6328125 1774.05078125 C-641.91649203 1765.70091318 -651.97153262 1757.09340628 -661.78125 1748.19140625 C-663.79308393 1746.37438018 -665.82660434 1744.58805608 -667.875 1742.8125 C-675.21782423 1736.40800828 -682.44316734 1729.85843042 -689.26025391 1722.89477539 C-690.96308179 1721.22372917 -692.72511533 1719.68111319 -694.54296875 1718.13671875 C-699.78355839 1713.57628819 -704.66267906 1708.67080518 -709.5625 1703.75 C-710.46935547 1702.84701172 -711.37621094 1701.94402344 -712.31054688 1701.01367188 C-716.89550759 1696.42206147 -721.33282728 1691.77189302 -725.55834961 1686.84741211 C-727.28256901 1684.86215085 -729.10877606 1683.01350932 -731 1681.1875 C-734.17089998 1678.05904036 -737.1256996 1674.81894648 -740.02734375 1671.44140625 C-741.96458906 1669.22795963 -743.95084932 1667.06563509 -745.95166016 1664.90966797 C-750.70810378 1659.78119376 -755.24107436 1654.54139246 -759.62890625 1649.08984375 C-762.31831577 1645.79786472 -765.09181954 1642.58755506 -767.875 1639.375 C-773.28625049 1633.10215068 -778.43991422 1626.66124349 -783.5078125 1620.109375 C-785.11074785 1618.04486141 -786.72632058 1615.99067524 -788.34375 1613.9375 C-795.95511867 1604.2534873 -803.30516414 1594.41497103 -810.44287109 1584.37695312 C-811.95332862 1582.25312386 -813.47040237 1580.13415381 -814.98828125 1578.015625 C-865.10942843 1507.80788509 -905.95808856 1430.69880029 -941 1336.1875 C-941.455889 1334.92615077 -941.91211464 1333.66492317 -942.36865234 1332.40380859 C-972.9340214 1247.7347316 -990.57157809 1158.24875388 -999 988.1875 C-998.98211426 986.98448242 -998.96422852 985.78146484 -998.94580078 984.54199219 C-997.4112597 893.79124855 -984.09373471 803.65781464 -895 555.1875 C-894.5059668 554.17075195 -894.01193359 553.15400391 -893.50292969 552.10644531 C-886.69481003 538.13519515 -879.40071629 524.53074843 -871.64550781 511.06396484 C-869.98065685 508.1536868 -868.34204608 505.23008944 -866.7109375 502.30078125 C-860.32749221 490.8501434 -853.67576782 479.65189504 -846.56982422 468.63574219 C-844.90600683 466.04091159 -843.26552978 463.43237299 -841.62890625 460.8203125 C-833.78846538 448.33388808 -825.57556494 436.1794474 -817 424.1875 C-816.46552246 423.43549316 -815.93104492 422.68348633 -815.38037109 421.90869141 C-802.95409105 404.42933777 -789.96883859 387.39345346 -776.34423828 370.83154297 C-774.51603339 368.59559459 -772.72689878 366.3295617 -770.9375 364.0625 C-763.62506116 354.89881082 -755.87754578 346.08171115 -748 337.40234375 C-746.20396471 335.41337498 -744.44046697 333.40186806 -742.6875 331.375 C-738.14604894 326.16995792 -733.4452173 321.11197179 -728.73925781 316.05615234 C-727.55774363 314.78673775 -726.37744713 313.51618892 -725.19824219 312.24462891 C-717.27435996 303.70786119 -709.22301313 295.31205195 -701 287.0625 C-700.22325928 286.28116699 -699.44651855 285.49983398 -698.64624023 284.69482422 C-694.46491498 280.52473546 -690.18945232 276.53734025 -685.71484375 272.68408203 C-683.71427359 270.93814025 -681.84401381 269.09737144 -680 267.1875 C-676.8501997 263.99488688 -673.58780511 261.01588721 -670.1875 258.09375 C-667.64488601 255.87804352 -665.16889802 253.59651408 -662.6875 251.3125 C-658.24749216 247.26228708 -653.68065719 243.43215878 -649.00390625 239.66015625 C-645.50332938 236.7786671 -642.09734225 233.80014638 -638.6875 230.8125 C-632.18383037 225.13395973 -625.50586602 219.73467495 -618.66455078 214.46972656 C-617.07264252 213.24345754 -615.48732658 212.0086448 -613.90234375 210.7734375 C-605.17425199 203.99840799 -596.28640379 197.44442237 -587.3671875 190.92382812 C-585.20633524 189.33884656 -583.05512175 187.74178628 -580.90625 186.140625 C-544.77589695 159.41078198 -505.67538376 136.18679057 -466 115.1875 C-464.87996582 114.59324219 -463.75993164 113.99898438 -462.60595703 113.38671875 C-395.03397913 77.64927741 -323.10758164 50.0177186 -246.97674561 30.68884277 C-245.09329455 30.21116139 -243.21092385 29.72922621 -241.32861328 29.24707031 C-180.47542844 13.73132709 -117.71606676 4.35692466 -55 1.1875 C-54.24525391 1.14619965 -53.49050781 1.10489929 -52.71289062 1.06234741 C-35.14535796 0.11155597 -17.58777564 -0.01455476 0 0 Z " fill="#ED1703" transform="translate(999,-0.1875)"/>
<path d="M0 0 C1.74289307 0.09087891 1.74289307 0.09087891 3.52099609 0.18359375 C26.93184743 1.38269202 50.3059578 2.20352737 73.75 2.1875 C74.78147156 2.1882251 75.81294312 2.1889502 76.87567139 2.18969727 C89.94858196 2.18865271 102.95305448 1.82902864 116 1 C119.60659072 9.4157981 122.31425259 18.07366302 125 26.8125 C125.42931565 28.19868293 125.8590014 29.58475129 126.2890625 30.97070312 C127.89880969 36.16402215 129.49644898 41.3610415 131.09326172 46.55834961 C136.31490938 63.55173754 141.77633514 80.45804182 147.44775391 97.30639648 C149.35365637 102.9840639 151.22308055 108.66538095 152.96875 114.39453125 C155.29115468 122.01342576 157.79115449 129.57029182 160.3125 137.125 C160.56843933 137.89287842 160.82437866 138.66075684 161.08807373 139.4519043 C165.93445211 153.9751424 170.94638948 168.43846029 176.01342773 182.88598633 C179.49203166 192.80581684 182.94747754 202.73278236 186.359375 212.67578125 C195.30715937 238.73104509 204.52812233 264.65889018 214.19195557 290.45751953 C216.22770427 295.90054158 218.22089695 301.35697743 220.1796875 306.828125 C220.64820295 308.12825837 221.11694287 309.42831089 221.5859375 310.72827148 C222.41534357 313.03442877 223.23635189 315.34363268 224.046875 317.65649414 C224.40007812 318.63223389 224.75328125 319.60797363 225.1171875 320.61328125 C225.41222168 321.44641846 225.70725586 322.27955566 226.01123047 323.13793945 C226.91382704 325.35437223 226.91382704 325.35437223 230 326 C230.1768634 325.38770538 230.35372681 324.77541077 230.53594971 324.14456177 C232.28466996 318.19050438 234.25063519 312.3665023 236.421875 306.5546875 C237.11274495 304.68743096 237.80357973 302.82016141 238.49438477 300.95288086 C239.04317795 299.47463333 239.04317795 299.47463333 239.60305786 297.96652222 C251.31422279 266.39969304 262.66673952 234.70393544 274 203 C274.59521454 201.33584045 274.59521454 201.33584045 275.20245361 199.63806152 C292.26212249 151.93174939 308.65525221 103.99716155 324.875 56 C325.13090534 55.24272991 325.38681068 54.48545982 325.65047073 53.70524216 C331.4698153 36.48221335 337.2709726 19.25332793 343 2 C344.12608421 2.00333092 344.12608421 2.00333092 345.2749176 2.00672913 C352.46394655 2.02704009 359.65296097 2.04212734 366.84201145 2.05181217 C370.53506794 2.05695908 374.22810009 2.06390097 377.92114258 2.07543945 C407.851513 2.2689965 407.851513 2.2689965 437.68884277 0.21208191 C441.6445383 -0.15091004 445.59320542 -0.14492951 449.5625 -0.125 C450.36751953 -0.12886719 451.17253906 -0.13273438 452.00195312 -0.13671875 C457.87319051 -0.12680949 457.87319051 -0.12680949 459 1 C458.90330793 4.34703308 458.40352762 7.6780302 458 11 C457.84144531 12.30839844 457.68289063 13.61679687 457.51953125 14.96484375 C456.14794463 25.85205537 456.14794463 25.85205537 455 27 C452.97475416 27.31418908 450.9483969 27.62245637 448.91772461 27.89941406 C435.49678347 29.7498674 421.10017259 32.19173992 411 42 C396.09055144 62.75561285 406.12566677 105.90561388 407.60650635 129.9430542 C407.87917863 134.40316484 408.14321802 138.86376743 408.40704727 143.32440853 C409.88827825 168.34103599 411.5569687 193.33569607 413.48936749 218.32139015 C414.34828742 229.46122087 415.11512942 240.60753902 415.88037109 251.75415039 C416.13043682 255.39158348 416.3835147 259.02879978 416.63671875 262.66601562 C417.32885954 272.67835414 418.00681442 282.68551388 418.4765625 292.7109375 C418.97081079 302.89010207 419.91897697 313.02126158 420.93701172 323.15991211 C421.24851555 326.29754781 421.5403579 329.4366391 421.83203125 332.57617188 C422.82977961 342.84023206 424.17354132 352.90908877 426.421875 362.98046875 C426.71303192 364.29837151 426.71303192 364.29837151 427.0100708 365.64289856 C428.99719106 374.00277009 431.76125696 381.906344 438 388 C444.66397239 391.93695575 451.37674328 391.34212481 458.9375 391.1875 C460.82178711 391.16719727 460.82178711 391.16719727 462.74414062 391.14648438 C465.82987279 391.11128591 468.91471024 391.06204305 472 391 C472.39828504 397.86045982 470.90717035 404.2477361 469.5 410.9375 C469.26152344 412.09830078 469.02304688 413.25910156 468.77734375 414.45507812 C468.19100025 417.30470751 467.59838855 420.15288 467 423 C466.13381798 422.95652435 466.13381798 422.95652435 465.25013733 422.91217041 C448.31040215 422.0832908 431.39660789 421.76317659 414.4375 421.75 C413.16850861 421.74799591 411.89951721 421.74599182 410.59207153 421.743927 C392.51097781 421.73695308 374.85196003 422.37103935 356.91308594 424.65820312 C350.30224393 425.43386343 343.64734461 425.71356167 337 426 C336.77897431 415.7468639 337.0320296 406.10341946 339 396 C339.57105469 395.91363281 340.14210938 395.82726563 340.73046875 395.73828125 C350.5278126 394.04049034 362.50840652 390.92485354 370 384 C371.99102748 381.13072482 373.54837135 378.17115444 375 375 C375.33 374.34 375.66 373.68 376 373 C376.25488616 368.36021517 376.19482605 363.70863931 376.1875 359.0625 C376.18689575 358.35974945 376.1862915 357.6569989 376.18566895 356.93295288 C376.15639653 344.30672334 375.44228095 331.82923179 374.35498047 319.24853516 C373.94223691 314.39097191 373.58284836 309.52966564 373.22265625 304.66796875 C371.27905586 278.55509822 369.12901008 252.46246504 366.91038513 226.37184525 C364.39053678 196.7303327 361.91516371 167.08555029 359.53457642 137.43249512 C359.22243228 133.54519072 358.90805474 129.65807758 358.59164429 125.77111816 C358.21977854 121.20080015 357.85272661 116.63012031 357.48936844 112.05911827 C357.35564534 110.38590336 357.22035705 108.71281262 357.08332443 107.03986549 C356.34548082 98.01521323 355.79622558 89.06372946 356 80 C354.04910703 80.13124758 354.04910703 80.13124758 352 81 C350.71378183 83.09563332 350.71378183 83.09563332 349.85961914 85.79272461 C349.48643051 86.82895966 349.11324188 87.8651947 348.72874451 88.93283081 C348.33486038 90.07777008 347.94097626 91.22270935 347.53515625 92.40234375 C346.88214068 94.23586908 346.22912432 96.06939414 345.57607746 97.90290833 C344.87686177 99.87605072 344.18572611 101.85185632 343.49688721 103.8286438 C342.05199819 107.97467466 340.58531673 112.11277588 339.11474609 116.24975586 C337.33321579 121.26544083 335.5564499 126.28275854 333.7858696 131.30231953 C329.40940419 143.70567761 324.93255903 156.07174055 320.44235229 168.43435669 C319.11869895 172.07985385 317.79736796 175.72618446 316.47680664 179.37280273 C311.01283895 194.460705 305.53395516 209.54314885 300.04559326 224.62219238 C294.26221491 240.51239187 288.50380475 256.41157069 282.75 272.3125 C275.84992837 291.38105975 268.93457657 310.44396162 262 329.5 C255.06985708 348.54479952 248.15460884 367.59493397 241.25476074 386.65072632 C240.57219083 388.53573742 239.88948991 390.42070109 239.20678711 392.30566406 C238.34175243 394.69424286 237.47718406 397.0829906 236.61312866 399.47192383 C235.80404475 401.70534192 234.99230961 403.93780174 234.17764282 406.16918945 C232.54857566 410.64199553 230.93895597 415.10809456 229.50732422 419.6484375 C229.29285141 420.31109116 229.0783786 420.97374481 228.85740662 421.65647888 C228.33441596 423.29396312 227.83734299 424.93967055 227.34350586 426.58618164 C225.50697461 429.88579721 223.47681913 430.57686503 220 431.875 C216.24463472 432.78510128 212.84717215 433.03973681 209 433 C208.64510498 431.97495361 208.29020996 430.94990723 207.92456055 429.89379883 C200.40051939 408.17834261 192.77710475 386.50117472 185 364.875 C178.01981172 345.4648421 171.10512944 326.03263853 164.23572922 306.58308029 C156.63833074 285.0724611 149.00081034 263.57731868 141.28613281 242.10839844 C134.57639036 223.43361143 127.92966111 204.73697547 121.30298233 186.03260803 C113.70039908 164.57398306 106.04964896 143.13329386 98.33984375 121.71289062 C97.97687195 120.70277924 97.61390015 119.69266785 97.2399292 118.65194702 C96.53224147 116.6839954 95.82269826 114.71670986 95.11114502 112.75015259 C93.27899843 107.66456662 91.51362706 102.56508701 89.82714844 97.42919922 C89.47180023 96.36164902 89.11645203 95.29409882 88.75033569 94.19419861 C88.07187848 92.14746257 87.40670881 90.09626024 86.75674438 88.04029846 C86.45336151 87.13037643 86.14997864 86.22045441 85.83740234 85.28295898 C85.57808929 84.47777328 85.31877625 83.67258759 85.05160522 82.84300232 C84.1465929 80.7949831 84.1465929 80.7949831 81.88516235 80.23231506 C81.26305878 80.15565109 80.6409552 80.07898712 80 80 C80.02358833 81.01495544 80.02358833 81.01495544 80.0476532 82.05041504 C80.1593398 90.87388613 79.46104 99.56916913 78.64453125 108.34375 C78.50088588 109.9316757 78.35776683 111.51964908 78.21513367 113.10766602 C77.91126331 116.48130592 77.60433112 119.85464682 77.29492188 123.2277832 C76.55436452 131.30620604 75.83200562 139.38626886 75.10746384 147.46614075 C74.8630433 150.19015186 74.61804245 152.91411031 74.37295532 155.63806152 C72.31093279 178.57831243 70.40318991 201.53086431 68.53185558 224.48739719 C68.07541727 230.08375759 67.61557322 235.67983494 67.15527344 241.27587891 C62.7886492 293.70765171 62.7886492 293.70765171 59.0625 346.1875 C59.00269958 347.11164703 58.94289917 348.03579407 58.88128662 348.98794556 C56.47074931 367.59084407 56.47074931 367.59084407 61 385 C64.66404109 389.00441649 68.08457701 390.88932527 73.5534668 391.20532227 C75.01859147 391.24703853 76.48386398 391.28375756 77.94921875 391.31640625 C79.10814384 391.3475779 79.10814384 391.3475779 80.29048157 391.37937927 C82.7560648 391.44471038 85.22175361 391.50368315 87.6875 391.5625 C89.36003691 391.60570087 91.03256319 391.64931566 92.70507812 391.69335938 C96.8032775 391.8003749 100.90158296 391.90168857 105 392 C104.46969856 399.36313375 103.46563343 406.46801452 101.9375 413.6875 C101.75123047 414.59177734 101.56496094 415.49605469 101.37304688 416.42773438 C100.92074302 418.61966845 100.463036 420.81031275 100 423 C91.87029224 423.10904228 83.78150408 423.02090481 75.65991211 422.64160156 C50.35044254 421.46072373 25.22514683 421.42697458 0 424 C-1.99341011 424.19352866 -3.98689964 424.38624112 -5.98046875 424.578125 C-10.65575943 425.03294469 -15.32834051 425.50934526 -20 426 C-19.76575697 422.39664443 -19.52668423 418.79374229 -19.27734375 415.19140625 C-19.09514811 412.53208598 -18.94557539 409.87792673 -18.81640625 407.21484375 C-18.75324219 406.07144531 -18.69007813 404.92804688 -18.625 403.75 C-18.57601562 402.71359375 -18.52703125 401.6771875 -18.4765625 400.609375 C-18 398 -18 398 -16.74609375 396.19921875 C-14.60786447 394.73068096 -13.00047739 394.42863963 -10.4375 394.0625 C-0.48244925 392.25380619 7.25454318 388.74725734 14 381 C19.81448856 372.12601746 22.18098861 361.6598594 23.5390625 351.26953125 C23.66221832 350.36717239 23.78537415 349.46481354 23.91226196 348.53511047 C25.28199623 338.27582407 26.33890849 327.98477315 27.375 317.6875 C27.58874926 315.59565777 27.80295284 313.50386191 28.01757812 311.41210938 C28.46104952 307.08660122 28.90260946 302.76090451 29.34277344 298.43505859 C30.27571328 289.28125409 31.23269484 280.12996763 32.18896484 270.97857666 C32.60808517 266.96494022 33.02579499 262.95115745 33.44354248 258.93737793 C34.35253859 250.20402433 35.26445958 241.47098388 36.1796875 232.73828125 C38.67733211 208.8917925 41.13517815 185.04124414 43.5625 161.1875 C43.63795044 160.44609016 43.71340088 159.70468033 43.7911377 158.94080353 C45.90773158 138.13058576 47.9643274 117.31617602 49.84594727 96.4831543 C49.91883469 95.67930298 49.99172211 94.87545166 50.06681824 94.04724121 C50.19777725 92.59863587 50.32749698 91.14991752 50.45552063 89.7010498 C50.75325527 86.39668639 51.10487125 83.10693364 51.53271484 79.81738281 C52.09712487 75.2065598 52.2217362 70.70129692 52.25 66.0625 C52.270625 65.22009766 52.29125 64.37769531 52.3125 63.50976562 C52.3669247 54.6725554 50.34957928 47.36242346 44.21484375 40.8515625 C33.13435569 31.58850899 19.10443474 29.51232568 5.26757812 28.18359375 C4.23181641 28.07144531 3.19605469 27.95929687 2.12890625 27.84375 C1.19119385 27.75287109 0.25348145 27.66199219 -0.71264648 27.56835938 C-3 27 -3 27 -5 24 C-4.61850206 18.3320306 -3.37409385 12.98240764 -1.9375 7.5 C-1.75123047 6.77296875 -1.56496094 6.0459375 -1.37304688 5.296875 C-0.91973545 3.53012276 -0.4604998 1.76489225 0 0 Z " fill="#FEFDFD" transform="translate(727,785)"/>
<path d="M0 0 C3.19065476 10.96363285 6.28144677 21.94072317 9.125 33 C10.89183596 39.85964633 12.75490746 46.64935278 14.8984375 53.40234375 C16.37461346 58.22347161 17.71480248 63.07912406 19.0625 67.9375 C22.62071098 80.74507724 26.31590849 93.51138006 30.02172852 106.27685547 C30.49497961 107.90721925 30.96820598 109.53759021 31.44140625 111.16796875 C31.78372032 112.34727966 31.78372032 112.34727966 32.13294983 113.55041504 C33.77591176 119.21533782 35.39439261 124.88687852 37 130.5625 C38.81237889 136.96108569 40.69045943 143.33891838 42.59375 149.7109375 C42.82841476 150.49661606 43.06307953 151.28229462 43.30485535 152.09178162 C44.28142553 155.36042881 45.25818308 158.62901963 46.23574829 161.89736938 C49.00180841 171.15282314 51.71351232 180.41124581 54.1875 189.75 C56.53587952 198.60387598 59.27473602 207.30707579 62.10351562 216.01831055 C64.26781791 222.68479946 66.32842311 229.36842722 68.27758789 236.10058594 C69.99908164 242.03817571 71.83001831 247.93694592 73.68847656 253.83300781 C74.88188808 257.62070953 76.064738 261.41164413 77.24609375 265.203125 C80.59750803 275.94159394 84.01097066 286.6604047 87.41870117 297.38110352 C88.26010571 300.02864925 89.10095141 302.6763714 89.94140625 305.32421875 C90.21223022 306.17721558 90.4830542 307.0302124 90.76208496 307.90905762 C92.2130302 312.48759096 93.63921887 317.07229012 95.03515625 321.66796875 C97.26106917 328.93199447 99.6575519 336.13614143 102.09912109 343.33007812 C102.61709485 344.86215909 103.13075876 346.3957038 103.64013672 347.93066406 C108.71019344 363.20254536 114.45316308 378.713611 129.0625 387.3125 C141.19331568 393.27653612 153.64662761 395.81027134 167 397 C168.01687934 400.94397128 167.90001666 403.95444703 167.22265625 407.95703125 C167.03896484 409.06884766 166.85527344 410.18066406 166.66601562 411.32617188 C166.46685547 412.47666016 166.26769531 413.62714844 166.0625 414.8125 C165.86720703 415.98232422 165.67191406 417.15214844 165.47070312 418.35742188 C164.98836126 421.23970866 164.49786807 424.12036156 164 427 C155.51083525 427.09578215 147.06338679 426.98142286 138.58007812 426.64160156 C99.16350607 425.10932195 59.38593748 424.54425793 20.17114258 429.31542969 C12.14123169 430.28076357 4.07592855 430.63725144 -4 431 C-7.98013799 423.03972403 -4.12611036 409.57653693 -3 401 C-1.19982422 400.85304688 -1.19982422 400.85304688 0.63671875 400.703125 C26.7380295 399.31236835 26.7380295 399.31236835 50 389 C53.7409318 383.7896456 54.65975232 379.90072515 54.5 373.5625 C54.48078491 372.37853638 54.48078491 372.37853638 54.46118164 371.1706543 C54.18914766 363.11538112 52.33876102 355.6668539 50 348 C49.47349633 346.22018869 48.94748417 344.44023193 48.421875 342.66015625 C45.54860995 333.026316 42.51052319 323.44661363 39.4375 313.875 C37.07543551 306.51009881 34.82029173 299.12218051 32.6875 291.6875 C32.44507568 290.84622559 32.20265137 290.00495117 31.95288086 289.13818359 C31.61075562 287.930896 31.61075562 287.930896 31.26171875 286.69921875 C30.96720825 285.66027466 30.96720825 285.66027466 30.66674805 284.6003418 C29.68084151 280.75527021 28.8453521 276.8780548 28 273 C17.20916726 273.08564661 6.41846278 273.18096348 -4.37218475 273.28752708 C-9.38660616 273.33676684 -14.40101339 273.3830802 -19.41552734 273.421875 C-48.20800235 273.643866 -48.20800235 273.643866 -76.96875 274.9140625 C-78.20250366 274.9901474 -79.43625732 275.0662323 -80.70739746 275.1446228 C-87.78538577 275.63563572 -94.74208045 276.47230305 -101.74719238 277.60067749 C-105.19528111 278.02397318 -108.5295062 278.06543251 -112 278 C-112.16698395 278.5796199 -112.3339679 279.15923981 -112.50601196 279.75642395 C-114.53648498 286.67613517 -116.86049397 293.46716484 -119.2734375 300.26171875 C-119.67905914 301.4105806 -120.08468079 302.55944244 -120.50259399 303.74311829 C-121.7911783 307.39203393 -123.08284607 311.03984707 -124.375 314.6875 C-139.68865827 348.9973632 -139.68865827 348.9973632 -138.8125 384.5 C-135.29437061 390.65919011 -130.73868739 393.86194635 -124 396 C-116.48545382 397.76399766 -109.15778413 398.31349163 -101.4609375 398.37890625 C-100.41346344 398.39590073 -99.36598938 398.4128952 -98.28677368 398.43040466 C-94.98290827 398.48300494 -91.67905329 398.52364298 -88.375 398.5625 C-85.03529794 398.60643713 -81.69569147 398.65300626 -78.35610962 398.70530701 C-76.28731574 398.73727404 -74.21843603 398.76416102 -72.14950562 398.78553772 C-71.22408966 398.79902756 -70.29867371 398.8125174 -69.34521484 398.82641602 C-68.52789886 398.83592789 -67.71058289 398.84543976 -66.86849976 398.85523987 C-65 399 -65 399 -64 400 C-64.0717208 409.75402818 -66.20074573 419.44924149 -68 429 C-74.92192355 429.22176439 -81.76567974 428.8526331 -88.6640625 428.34375 C-115.11628738 426.43413791 -141.42783389 425.71026416 -167.9375 425.75 C-169.49009195 425.75107201 -171.04268391 425.75213011 -172.59527588 425.75317383 C-192.08380111 425.77507847 -211.5279232 426.15079007 -231 427 C-230.03140127 415.37673512 -230.03140127 415.37673512 -229.02734375 410.55078125 C-228.85009766 409.68388672 -228.67285156 408.81699219 -228.49023438 407.92382812 C-228.30783203 407.06208984 -228.12542969 406.20035156 -227.9375 405.3125 C-227.75123047 404.40822266 -227.56496094 403.50394531 -227.37304688 402.57226562 C-226.92074302 400.38033155 -226.463036 398.18968725 -226 396 C-224.85724609 395.74476563 -224.85724609 395.74476563 -223.69140625 395.484375 C-208.21033065 391.85086412 -196.68048304 385.65751675 -188 372 C-179.23867764 357.01288596 -173.36048906 340.88263678 -167.25 324.6875 C-166.32240034 322.24198199 -165.3942495 319.79667299 -164.46557617 317.3515625 C-162.56369347 312.34147655 -160.66479949 307.33027795 -158.76904297 302.31787109 C-155.01805752 292.40160584 -151.25056029 282.49162608 -147.48352051 272.58145142 C-146.30709048 269.48576526 -145.13147852 266.3897695 -143.95605469 263.29370117 C-138.29363918 248.38199647 -132.59585763 233.48405551 -126.88442993 218.59106445 C-121.06118583 203.40478551 -115.27138508 188.2060586 -109.5 173 C-102.99261569 155.85477995 -96.45542604 138.72133304 -89.88726807 121.5993042 C-85.23524831 109.47130686 -80.59731445 97.33820905 -76.00294495 85.18823242 C-74.00493444 79.90694918 -71.99460364 74.63114347 -69.95385742 69.36621094 C-66.43929538 60.27139202 -63.00296656 51.19593779 -60.03562927 41.90556335 C-50.81215635 13.0366571 -50.81215635 13.0366571 -44.1796875 7.75341797 C-38.17513597 4.85192192 -32.27354324 4.21322834 -25.66943359 4.11767578 C-21.94431983 3.95346279 -19.10559465 2.93897597 -15.625 1.625 C-10.38658717 -0.27566306 -5.50155237 -0.15795868 0 0 Z " fill="#FEFDFD" transform="translate(1453,781)"/>
<path d="M0 0 C1 1 1 1 1.20703125 3.81640625 C1.12491191 9.29613222 -0.1993989 14.59350715 -1.3125 19.9375 C-3.64467559 31.58526661 -5.31124879 43.20371031 -6.65283203 55.00146484 C-7.12996249 59.12250302 -7.65060413 63.2376186 -8.171875 67.35327148 C-8.6757933 71.33202143 -9.16997309 75.31195116 -9.66357422 79.29199219 C-9.87752414 81.01414932 -10.09256977 82.73617095 -10.30908203 84.45800781 C-11.42743044 93.37073368 -12.29209997 102.2465137 -12.75390625 111.21875 C-13 114 -13 114 -14 115 C-15.6945447 115.22827772 -17.39745773 115.39508694 -19.1015625 115.53515625 C-20.14957031 115.62216797 -21.19757813 115.70917969 -22.27734375 115.79882812 C-23.38207031 115.88583984 -24.48679687 115.97285156 -25.625 116.0625 C-27.24728516 116.19881836 -27.24728516 116.19881836 -28.90234375 116.33789062 C-34.28988719 116.77534073 -39.59097462 117.04343752 -45 117 C-44.99333817 116.43782776 -44.98667633 115.87565552 -44.97981262 115.29644775 C-44.91290844 109.39056173 -44.86797345 103.48478515 -44.83520508 97.57861328 C-44.8202146 95.38097757 -44.79981534 93.18337129 -44.77368164 90.98583984 C-43.69826772 70.23304894 -43.69826772 70.23304894 -52 52 C-57.6539538 47.33749781 -63.93538452 45.51793765 -71 44 C-71.89203125 43.80535156 -72.7840625 43.61070312 -73.703125 43.41015625 C-90.41431745 40.21262362 -107.94149895 40.81348461 -124.88110352 40.81469727 C-128.32515497 40.8124919 -131.76889461 40.7941996 -135.21289062 40.77539062 C-154.25781422 39.63718574 -154.25781422 39.63718574 -171.75 45.1875 C-178.9505341 54.18816762 -177.29894802 69.19695347 -177.71875 80.24609375 C-177.78170496 81.84616393 -177.84487082 83.44622583 -177.90823364 85.04627991 C-178.07559798 89.29989828 -178.23837539 93.55368 -178.39984894 97.80752563 C-178.50016034 100.44171041 -178.60178865 103.07584134 -178.70379639 105.70996094 C-179.53389325 127.17824253 -180.32699703 148.64484015 -180.70898438 170.12670898 C-180.91466633 181.43068581 -181.41662221 192.70935343 -182 204 C-169.91705252 204.18414629 -157.83415087 204.30608082 -145.75 204.375 C-144.40798964 204.38270416 -144.40798964 204.38270416 -143.03886795 204.39056396 C-114.1950901 204.53678342 -86.15134132 203.29611301 -57.59049988 198.91470337 C-53.34407389 198.26798996 -49.3129839 197.85416498 -45 198 C-43.92956007 203.36133015 -44.2341614 207.5235857 -45.6171875 212.83203125 C-45.79379913 213.54985275 -45.97041077 214.26767426 -46.15237427 215.00724792 C-46.7146525 217.27883651 -47.29478925 219.54543379 -47.875 221.8125 C-48.2576329 223.3532373 -48.63915417 224.89425111 -49.01953125 226.43554688 C-51.79862636 237.59725272 -51.79862636 237.59725272 -53 240 C-59.87716464 240.10935421 -66.65416364 239.98619961 -73.515625 239.51171875 C-86.05191615 238.74902026 -98.60871539 238.77638744 -111.16357422 238.75976562 C-113.95342245 238.75540422 -116.74295739 238.74157245 -119.53271484 238.71875 C-136.61565713 238.58177839 -153.25959554 239.21879995 -170.24072266 241.35253906 C-174.87723638 241.92478046 -179.33228407 242.13443475 -184 242 C-183.99476318 242.79543213 -183.98952637 243.59086426 -183.98413086 244.41040039 C-183.89732572 259.8803955 -183.9555207 275.32752607 -184.42907715 290.79110718 C-184.9228927 307.04133602 -185.13691934 323.28658984 -185.17724609 339.54437256 C-185.18402487 341.99413236 -185.19421969 344.44388534 -185.20800781 346.89361572 C-185.22600804 350.35102087 -185.23016792 353.80817817 -185.23046875 357.265625 C-185.23761398 358.28810333 -185.24475922 359.31058167 -185.25212097 360.36404419 C-185.22243227 369.90608204 -184.57420395 380.88317671 -179 389 C-173.5230955 393.71058865 -168.33239604 395.12495834 -161.21484375 395.1328125 C-160.05621826 395.13474609 -158.89759277 395.13667969 -157.70385742 395.13867188 C-156.46095947 395.13416016 -155.21806152 395.12964844 -153.9375 395.125 C-152.66302002 395.12306641 -151.38854004 395.12113281 -150.07543945 395.11914062 C-137.03857009 395.06135949 -124.02330441 394.59232641 -111 394 C-109.86992393 398.1939905 -110.20081031 401.36530384 -110.99609375 405.61328125 C-111.22490234 406.86044922 -111.45371094 408.10761719 -111.68945312 409.39257812 C-111.93630859 410.68615234 -112.18316406 411.97972656 -112.4375 413.3125 C-112.68378996 414.63851479 -112.92924154 415.96468559 -113.17382812 417.29101562 C-113.77432215 420.52897361 -114.3833286 423.76509085 -115 427 C-126.41852181 427.11231333 -137.80015573 426.97377613 -149.2109375 426.52734375 C-165.45104403 425.94120074 -181.6872399 425.58934351 -197.9375 425.5 C-198.67050198 425.49539764 -199.40350395 425.49079529 -200.15871811 425.48605347 C-229.90331966 425.31834079 -258.62752929 428.11294374 -288 433 C-287.49532824 425.34773611 -286.9616887 417.7267561 -285.9375 410.125 C-285.84662109 409.42503906 -285.75574219 408.72507812 -285.66210938 408.00390625 C-285.44498385 406.33546802 -285.22307567 404.6676531 -285 403 C-284.00097656 402.71511719 -283.00195312 402.43023438 -281.97265625 402.13671875 C-281.33086426 401.95286621 -280.68907227 401.76901367 -280.02783203 401.57958984 C-278.12248133 401.03500731 -276.21558733 400.49583261 -274.30859375 399.95703125 C-260.76993327 396.01513203 -247.36293249 391.72965086 -239.8046875 378.984375 C-234.52817279 368.43134559 -233.5509178 356.4022479 -233.61904907 344.79801941 C-233.6143691 343.54692408 -233.60968913 342.29582876 -233.60486734 341.00682145 C-233.59248519 337.57826319 -233.59846828 334.14995936 -233.60782599 330.72140086 C-233.614669 327.00704049 -233.60410972 323.29272111 -233.59588623 319.57836914 C-233.58260419 312.32076556 -233.58540125 305.06325547 -233.59412415 297.80564835 C-233.60091958 291.90597555 -233.60180942 286.00632881 -233.5985527 280.10665321 C-233.598093 279.2646634 -233.59763331 278.42267359 -233.59715968 277.55516893 C-233.59620044 275.84435698 -233.5952278 274.13354504 -233.5942419 272.42273311 C-233.5857049 256.41355724 -233.59549691 240.40443307 -233.611643 224.39526568 C-233.62505689 210.67014153 -233.622706 196.94509349 -233.60888672 183.2199707 C-233.59282208 167.25745543 -233.58651587 151.29498531 -233.59572351 135.33246309 C-233.59667911 133.62973138 -233.59762222 131.92699968 -233.5985527 130.22426796 C-233.59901553 129.38661056 -233.59947836 128.54895317 -233.59995521 127.68591222 C-233.60254153 121.79340152 -233.59818208 115.90091956 -233.59111404 110.00841331 C-233.58268957 102.82775279 -233.5849996 95.64719061 -233.60095628 88.46654131 C-233.60882438 84.80561729 -233.61195549 81.1448571 -233.60200882 77.4839344 C-233.59137922 73.51155166 -233.60409639 69.53943551 -233.61904907 65.56706238 C-233.61235691 64.4160884 -233.60566474 63.26511442 -233.59876978 62.07926244 C-233.65616347 54.21678884 -234.31003762 47.32705873 -239.375 41.0625 C-244.30207282 37.1912285 -248.24825275 36.75997073 -254.453125 36.83984375 C-255.50436554 36.8476461 -255.50436554 36.8476461 -256.57684326 36.85560608 C-258.8014457 36.8733323 -261.02557563 36.90451882 -263.25 36.9375 C-265.48865848 36.96509924 -267.72725424 36.98977844 -269.96600342 37.00868225 C-271.98684376 37.02653724 -274.00759301 37.05393654 -276.02832031 37.08178711 C-279 37 -279 37 -280 36 C-280.29364612 30.30025355 -279.50012646 24.92517558 -278.5625 19.3125 C-278.42779297 18.47138672 -278.29308594 17.63027344 -278.15429688 16.76367188 C-277.5632518 13.12802389 -276.90846369 9.57041529 -276 6 C-274.81237784 6.00276538 -274.81237784 6.00276538 -273.60076332 6.00558662 C-254.01927624 6.05043924 -234.43779985 6.08317469 -214.85627174 6.10362434 C-205.38544445 6.11378527 -195.91465252 6.12760207 -186.44384766 6.15087891 C-132.87163835 6.30547224 -132.87163835 6.30547224 -79.31640625 5.125 C-77.62345617 5.06720556 -77.62345617 5.06720556 -75.89630508 5.00824356 C-54.99578554 4.26823965 -34.17443328 2.61424333 -13.36542988 0.55080032 C-8.89589477 0.10861019 -4.49791789 -0.16885009 0 0 Z " fill="#FEFDFD" transform="translate(667,781)"/>
<path d="M0 0 C1.65 0 3.3 0 5 0 C12.04116692 20.51220975 18.16626717 41.28744073 24.26489258 62.0949707 C28.09409657 75.15748402 32.04755832 88.1809673 36.0625 101.1875 C38.69884744 109.72921627 41.28487787 118.28200903 43.7890625 126.86328125 C45.17268229 131.60235168 46.58389464 136.33304826 48 141.0625 C48.37463379 142.31728149 48.37463379 142.31728149 48.75683594 143.59741211 C49.96525865 147.62692827 51.197817 151.64563519 52.4921875 155.6484375 C52.72550781 156.37409912 52.95882813 157.09976074 53.19921875 157.84741211 C53.83224629 159.80526931 54.47438972 161.7601725 55.1171875 163.71484375 C55.91206358 166.67276758 56.19582721 168.96467826 56 172 C53.27163535 172.3211675 50.54260664 172.6317454 47.8125 172.9375 C47.08224609 173.02451172 46.35199219 173.11152344 45.59960938 173.20117188 C23.30224166 175.65843281 0.79426991 175.12505741 -21.59979248 175.06866455 C-26.16613293 175.05828767 -30.73247919 175.05383668 -35.29882812 175.04882812 C-44.19923366 175.03822204 -53.09961391 175.02123921 -62 175 C-59.95240058 167.94379423 -57.66706982 161.0007166 -55.21875 154.07421875 C-54.85326553 153.03478622 -54.48778107 151.9953537 -54.11122131 150.92442322 C-52.91004135 147.5112073 -51.70520382 144.09929699 -50.5 140.6875 C-49.64703509 138.26807309 -48.79408947 135.84863937 -47.94116211 133.42919922 C-40.27320319 111.69853248 -32.49776713 90.00670667 -24.70343018 68.32110596 C-21.58833736 59.64936965 -18.48901096 50.97207514 -15.39453125 42.29296875 C-14.92658749 40.98083222 -14.45863608 39.66869841 -13.99067688 38.35656738 C-12.17122478 33.25451059 -10.35204064 28.15236017 -8.53518677 23.04937744 C-7.2927553 19.55988025 -6.0488479 16.0709123 -4.8046875 12.58203125 C-4.43273758 11.535811 -4.06078766 10.48959076 -3.67756653 9.41166687 C-3.33779282 8.45959854 -2.9980191 7.50753021 -2.64794922 6.52661133 C-2.2042952 5.28081047 -2.2042952 5.28081047 -1.75167847 4.00984192 C-1 2 -1 2 0 0 Z " fill="#ED1804" transform="translate(1415,852)"/>
</svg>
